<svg id="Layer_1" data-name="Layer 1" xmlns="http://www.w3.org/2000/svg" xmlns:xlink="http://www.w3.org/1999/xlink" viewBox="0 0 1080 1080"><defs><style>.cls-1{fill:url(#linear-gradient);}.cls-2{fill:url(#linear-gradient-2);}.cls-3{fill:url(#linear-gradient-3);}</style><linearGradient id="linear-gradient" x1="497.94" y1="610.5" x2="633.1" y2="820.58" gradientUnits="userSpaceOnUse"><stop offset="0" stop-color="#0ce6f0"/><stop offset="1" stop-color="#2256f7"/></linearGradient><linearGradient id="linear-gradient-2" x1="537.03" y1="201.9" x2="463.62" y2="567.24" xlink:href="#linear-gradient"/><linearGradient id="linear-gradient-3" x1="570.53" y1="699.65" x2="719.86" y2="383.47" xlink:href="#linear-gradient"/></defs><path class="cls-1" d="M334,563l33.85-18.28L384,536l53.6-29L524,460.24l62.2-33.59-1.32,60.14-29.15,15.76L490,538.13l-53.6,29L405,584l-46.12,25a4.78,4.78,0,0,0-.23,8.31L572.28,744.41a4.51,4.51,0,0,0,4.77,0,4.38,4.38,0,0,0,2.41-4l.61-26.34,1.27-60.71L633,684.1l-1.2,57.4a57.16,57.16,0,0,1-86.3,47.86L331.91,662.27A57.07,57.07,0,0,1,334,563Z"/><path class="cls-2" d="M335.42,406l221.17-116.8a56.57,56.57,0,0,1,55.83,1.42l.85.5a56.59,56.59,0,0,1,27.05,49.8L639.13,398l-1.32,60.15-1.06,49.35-.38,19.55L634.27,624l-51.64-30.71,1.59-73.77.21-9.69.45-23,1.32-60.14,1.12-52.13L588,339.8a4.49,4.49,0,0,0-2.24-4.15,4.22,4.22,0,0,0-4.77-.17L359.85,452.27a4.48,4.48,0,0,0-2.53,4.13,4.4,4.4,0,0,0,2.3,4.18l78,46.4L384,536l-51.13-30.42A57.09,57.09,0,0,1,335.42,406Z"/><path class="cls-3" d="M721,672.86a4.58,4.58,0,0,0,2.42-4.19l.27-248.91a4.67,4.67,0,0,0-2.37-4.07,4.56,4.56,0,0,0-4.71-.14l-78.84,42.64L639.13,398l52.63-28.49a56.69,56.69,0,0,1,56.34,1.19l.06,0a56.4,56.4,0,0,1,27.81,49l-.21,248.94a57.06,57.06,0,0,1-86.26,49L436.38,567.11l53.6-29L716.24,672.75A4.59,4.59,0,0,0,721,672.86Z"/></svg>
